<svg width="30" height="30" viewBox="0 0 30 30" fill="none" xmlns="http://www.w3.org/2000/svg">
<path d="M9.56993 22.9331C7.84017 22.9331 6.43799 24.3354 6.43799 26.0651C6.43799 27.7948 7.84024 29.197 9.56993 29.197C11.2997 29.197 12.7019 27.7947 12.7019 26.0651C12.7019 24.3354 11.2997 22.9331 9.56993 22.9331ZM9.56993 27.8051C8.60897 27.8051 7.82998 27.0261 7.82998 26.0651C7.82998 25.1042 8.60897 24.3252 9.56993 24.3252C10.5309 24.3252 11.3099 25.1042 11.3099 26.0651C11.31 27.0261 10.5309 27.8051 9.56993 27.8051Z" fill="#1D1D1D"/>
<path d="M22.7938 22.9331C21.064 22.9331 19.6619 24.3354 19.6619 26.0651C19.6619 27.7948 21.0641 29.197 22.7938 29.197C24.5235 29.197 25.9258 27.7947 25.9258 26.0651C25.9258 24.3354 24.5236 22.9331 22.7938 22.9331ZM22.7938 27.8051C21.8328 27.8051 21.0539 27.0261 21.0539 26.0651C21.0539 25.1042 21.8328 24.3252 22.7938 24.3252C23.7548 24.3252 24.5338 25.1042 24.5338 26.0651C24.5338 27.0261 23.7548 27.8051 22.7938 27.8051Z" fill="#1D1D1D"/>
<path d="M29.8581 4.66322C29.7132 4.50489 29.5149 4.40577 29.3014 4.38479L6.64676 4.0716L6.02037 2.15759C5.57909 0.878104 4.38093 0.0143209 3.02757 0H0.695996C0.311596 0 0 0.311596 0 0.695995C0 1.08039 0.311596 1.39199 0.695996 1.39199H3.02757C3.78431 1.40871 4.45067 1.89462 4.69799 2.61L9.11755 15.9383L8.76959 16.7387C8.38146 17.7395 8.49802 18.866 9.08278 19.7662C9.66195 20.6504 10.6363 21.196 11.6928 21.2278H25.2299C25.6143 21.2278 25.9259 20.9162 25.9259 20.5318C25.9259 20.1474 25.6143 19.8358 25.2299 19.8358H11.6927C11.0961 19.8209 10.5469 19.5071 10.2311 19.0006C9.91886 18.5004 9.85471 17.8841 10.0571 17.3302L10.3356 16.7038L24.9862 15.1726C26.5955 14.9954 27.9193 13.8249 28.2922 12.2494L29.9627 5.2547C30.0379 5.05328 29.998 4.82674 29.8581 4.66322ZM26.935 11.9363C26.7091 12.9505 25.848 13.6986 24.8123 13.7807L10.3356 15.2771L7.09917 5.46359L28.4314 5.77678L26.935 11.9363Z" fill="#1D1D1D"/>
</svg>
