<svg width="305" height="70" viewBox="0 0 305 70" fill="none" xmlns="http://www.w3.org/2000/svg">
<path d="M90.63 36.1629C88.7481 36.1629 87.0472 35.7467 85.5272 34.9143C84.0253 34.0819 82.84 32.9329 81.9714 31.4671C81.121 29.9833 80.6957 28.3276 80.6957 26.5C80.6957 24.6724 81.121 23.0257 81.9714 21.56C82.84 20.0762 84.0343 18.9181 85.5543 18.0857C87.0743 17.2533 88.7753 16.8371 90.6572 16.8371C92.0686 16.8371 93.3714 17.0724 94.5657 17.5429C95.76 18.0133 96.7734 18.701 97.6057 19.6057L96.33 20.8814C94.8462 19.3795 92.9734 18.6286 90.7114 18.6286C89.2095 18.6286 87.8434 18.9724 86.6129 19.66C85.3824 20.3476 84.4143 21.2886 83.7086 22.4829C83.021 23.6771 82.6772 25.0162 82.6772 26.5C82.6772 27.9838 83.021 29.3229 83.7086 30.5171C84.4143 31.7114 85.3824 32.6524 86.6129 33.34C87.8434 34.0276 89.2095 34.3714 90.7114 34.3714C92.9914 34.3714 94.8643 33.6114 96.33 32.0914L97.6057 33.3671C96.7734 34.2719 95.751 34.9686 94.5386 35.4571C93.3443 35.9276 92.0414 36.1629 90.63 36.1629ZM115.498 30.9243H104.912L102.632 36H100.542L109.228 17H111.209L119.895 36H117.778L115.498 30.9243ZM114.765 29.2957L110.205 19.09L105.645 29.2957H114.765ZM138.183 36L133.841 29.8929C133.352 29.9471 132.845 29.9743 132.321 29.9743H127.218V36H125.209V17H132.321C134.745 17 136.645 17.579 138.021 18.7371C139.396 19.8952 140.083 21.4876 140.083 23.5143C140.083 24.9981 139.703 26.2557 138.943 27.2871C138.202 28.3005 137.134 29.0333 135.741 29.4857L140.382 36H138.183ZM132.266 28.2643C134.148 28.2643 135.587 27.8481 136.582 27.0157C137.577 26.1833 138.075 25.0162 138.075 23.5143C138.075 21.9762 137.577 20.8 136.582 19.9857C135.587 19.1533 134.148 18.7371 132.266 18.7371H127.218V28.2643H132.266ZM160.431 34.2629V36H146.996V17H160.024V18.7371H149.004V25.4957H158.83V27.2057H149.004V34.2629H160.431ZM184.851 36.1629C182.969 36.1629 181.268 35.7467 179.748 34.9143C178.246 34.0819 177.061 32.9329 176.192 31.4671C175.342 29.9833 174.916 28.3276 174.916 26.5C174.916 24.6724 175.342 23.0257 176.192 21.56C177.061 20.0762 178.255 18.9181 179.775 18.0857C181.295 17.2533 182.996 16.8371 184.878 16.8371C186.289 16.8371 187.592 17.0724 188.786 17.5429C189.981 18.0133 190.994 18.701 191.826 19.6057L190.551 20.8814C189.067 19.3795 187.194 18.6286 184.932 18.6286C183.43 18.6286 182.064 18.9724 180.834 19.66C179.603 20.3476 178.635 21.2886 177.929 22.4829C177.242 23.6771 176.898 25.0162 176.898 26.5C176.898 27.9838 177.242 29.3229 177.929 30.5171C178.635 31.7114 179.603 32.6524 180.834 33.34C182.064 34.0276 183.43 34.3714 184.932 34.3714C187.212 34.3714 189.085 33.6114 190.551 32.0914L191.826 33.3671C190.994 34.2719 189.972 34.9686 188.759 35.4571C187.565 35.9276 186.262 36.1629 184.851 36.1629ZM211.254 36L206.911 29.8929C206.423 29.9471 205.916 29.9743 205.391 29.9743H200.288V36H198.28V17H205.391C207.816 17 209.716 17.579 211.091 18.7371C212.466 19.8952 213.154 21.4876 213.154 23.5143C213.154 24.9981 212.774 26.2557 212.014 27.2871C211.272 28.3005 210.204 29.0333 208.811 29.4857L213.453 36H211.254ZM205.337 28.2643C207.219 28.2643 208.657 27.8481 209.653 27.0157C210.648 26.1833 211.145 25.0162 211.145 23.5143C211.145 21.9762 210.648 20.8 209.653 19.9857C208.657 19.1533 207.219 18.7371 205.337 18.7371H200.288V28.2643H205.337ZM220.066 17H222.075V36H220.066V17ZM250.161 17V36H248.234V20.8L240.769 33.5843H239.819L232.355 20.8814V36H230.428V17H232.084L240.335 31.0871L248.505 17H250.161ZM271.959 34.2629V36H258.523V17H271.552V18.7371H260.532V25.4957H270.357V27.2057H260.532V34.2629H271.959ZM290.767 30.9243H280.182L277.902 36H275.812L284.497 17H286.479L295.164 36H293.047L290.767 30.9243ZM290.034 29.2957L285.474 19.09L280.914 29.2957H290.034Z" fill="#514C4C"/>
<path d="M79.96 50.5742H80.6028V53.6342H85.1543V50.5742H85.7971V57.2856H85.1543V54.1999H80.6028V57.2856H79.96V50.5742ZM90.7975 50.5228C91.629 50.5228 92.2675 50.7371 92.7133 51.1656C93.159 51.5856 93.3818 52.2071 93.3818 53.0299V57.2856H92.7647V56.0899C92.5504 56.4842 92.2375 56.7928 91.8261 57.0156C91.4147 57.2299 90.9218 57.3371 90.3475 57.3371C89.6018 57.3371 89.0104 57.1614 88.5733 56.8099C88.1447 56.4585 87.9304 55.9956 87.9304 55.4214C87.9304 54.8642 88.1275 54.4142 88.5218 54.0714C88.9247 53.7199 89.5633 53.5442 90.4375 53.5442H92.739V53.0042C92.739 52.3785 92.5675 51.9028 92.2247 51.5771C91.8904 51.2514 91.3975 51.0885 90.7461 51.0885C90.3004 51.0885 89.8718 51.1656 89.4604 51.3199C89.0575 51.4742 88.7147 51.6799 88.4318 51.9371L88.1104 51.4742C88.4447 51.1742 88.8475 50.9428 89.319 50.7799C89.7904 50.6085 90.2833 50.5228 90.7975 50.5228ZM90.4375 56.8099C90.9947 56.8099 91.4661 56.6814 91.8518 56.4242C92.2461 56.1671 92.5418 55.7942 92.739 55.3056V54.0456H90.4504C89.7904 54.0456 89.3104 54.1656 89.0104 54.4056C88.719 54.6456 88.5733 54.9756 88.5733 55.3956C88.5733 55.8328 88.7361 56.1799 89.0618 56.4371C89.3875 56.6856 89.8461 56.8099 90.4375 56.8099ZM100.481 51.1528H97.858V57.2856H97.2152V51.1528H94.5923V50.5742H100.481V51.1528ZM107.334 50.5742L103.888 58.1985C103.631 58.7899 103.331 59.2099 102.988 59.4585C102.654 59.7071 102.256 59.8314 101.793 59.8314C101.484 59.8314 101.193 59.7799 100.918 59.6771C100.653 59.5742 100.426 59.4242 100.237 59.2271L100.558 58.7385C100.901 59.0899 101.317 59.2656 101.806 59.2656C102.131 59.2656 102.41 59.1756 102.641 58.9956C102.873 58.8156 103.087 58.5071 103.284 58.0699L103.644 57.2599L100.623 50.5742H101.304L103.991 56.5785L106.678 50.5742H107.334ZM112.27 50.5228C112.896 50.5228 113.461 50.6685 113.967 50.9599C114.473 51.2514 114.867 51.6542 115.15 52.1685C115.441 52.6828 115.587 53.2699 115.587 53.9299C115.587 54.5899 115.441 55.1814 115.15 55.7042C114.867 56.2185 114.473 56.6214 113.967 56.9128C113.461 57.1956 112.896 57.3371 112.27 57.3371C111.679 57.3371 111.143 57.1999 110.663 56.9256C110.183 56.6428 109.81 56.2528 109.544 55.7556V59.7799H108.901V50.5742H109.519V52.1556C109.784 51.6414 110.157 51.2428 110.637 50.9599C111.126 50.6685 111.67 50.5228 112.27 50.5228ZM112.231 56.7585C112.746 56.7585 113.209 56.6385 113.62 56.3985C114.031 56.1585 114.353 55.8242 114.584 55.3956C114.824 54.9671 114.944 54.4785 114.944 53.9299C114.944 53.3814 114.824 52.8928 114.584 52.4642C114.353 52.0356 114.031 51.7014 113.62 51.4614C113.209 51.2214 112.746 51.1014 112.231 51.1014C111.717 51.1014 111.254 51.2214 110.843 51.4614C110.44 51.7014 110.119 52.0356 109.879 52.4642C109.647 52.8928 109.531 53.3814 109.531 53.9299C109.531 54.4785 109.647 54.9671 109.879 55.3956C110.119 55.8242 110.44 56.1585 110.843 56.3985C111.254 56.6385 111.717 56.7585 112.231 56.7585ZM119.877 50.5228C120.708 50.5228 121.347 50.7371 121.793 51.1656C122.238 51.5856 122.461 52.2071 122.461 53.0299V57.2856H121.844V56.0899C121.63 56.4842 121.317 56.7928 120.905 57.0156C120.494 57.2299 120.001 57.3371 119.427 57.3371C118.681 57.3371 118.09 57.1614 117.653 56.8099C117.224 56.4585 117.01 55.9956 117.01 55.4214C117.01 54.8642 117.207 54.4142 117.601 54.0714C118.004 53.7199 118.643 53.5442 119.517 53.5442H121.818V53.0042C121.818 52.3785 121.647 51.9028 121.304 51.5771C120.97 51.2514 120.477 51.0885 119.825 51.0885C119.38 51.0885 118.951 51.1656 118.54 51.3199C118.137 51.4742 117.794 51.6799 117.511 51.9371L117.19 51.4742C117.524 51.1742 117.927 50.9428 118.398 50.7799C118.87 50.6085 119.363 50.5228 119.877 50.5228ZM119.517 56.8099C120.074 56.8099 120.545 56.6814 120.931 56.4242C121.325 56.1671 121.621 55.7942 121.818 55.3056V54.0456H119.53C118.87 54.0456 118.39 54.1656 118.09 54.4056C117.798 54.6456 117.653 54.9756 117.653 55.3956C117.653 55.8328 117.815 56.1799 118.141 56.4371C118.467 56.6856 118.925 56.8099 119.517 56.8099ZM130.319 50.5742V57.2856H129.676V51.1528H126.179L126.089 52.9399C126.037 53.8656 125.96 54.6414 125.857 55.2671C125.754 55.8928 125.579 56.3985 125.33 56.7842C125.082 57.1699 124.739 57.3628 124.302 57.3628C124.173 57.3628 123.989 57.3328 123.749 57.2728L123.813 56.7199C123.95 56.7542 124.053 56.7714 124.122 56.7714C124.482 56.7714 124.756 56.5956 124.944 56.2442C125.133 55.8928 125.262 55.4556 125.33 54.9328C125.399 54.4099 125.454 53.7285 125.497 52.8885L125.613 50.5742H130.319ZM135.783 53.0171C136.615 53.0256 137.249 53.2099 137.686 53.5699C138.123 53.9214 138.342 54.4399 138.342 55.1256C138.342 55.8371 138.11 56.3814 137.648 56.7585C137.185 57.1356 136.512 57.3199 135.629 57.3114L133.096 57.2856V50.5742H133.739V52.9914L135.783 53.0171ZM135.616 56.7971C136.293 56.8056 136.808 56.6685 137.159 56.3856C137.51 56.1028 137.686 55.6828 137.686 55.1256C137.686 54.5856 137.515 54.1871 137.172 53.9299C136.829 53.6642 136.31 53.5228 135.616 53.5056L133.739 53.4928V56.7714L135.616 56.7971ZM140.203 50.5742H140.846V53.6342H145.397V50.5742H146.04V57.2856H145.397V54.1999H140.846V57.2856H140.203V50.5742ZM151.04 50.5228C151.872 50.5228 152.51 50.7371 152.956 51.1656C153.402 51.5856 153.625 52.2071 153.625 53.0299V57.2856H153.007V56.0899C152.793 56.4842 152.48 56.7928 152.069 57.0156C151.657 57.2299 151.165 57.3371 150.59 57.3371C149.845 57.3371 149.253 57.1614 148.816 56.8099C148.387 56.4585 148.173 55.9956 148.173 55.4214C148.173 54.8642 148.37 54.4142 148.765 54.0714C149.167 53.7199 149.806 53.5442 150.68 53.5442H152.982V53.0042C152.982 52.3785 152.81 51.9028 152.467 51.5771C152.133 51.2514 151.64 51.0885 150.989 51.0885C150.543 51.0885 150.115 51.1656 149.703 51.3199C149.3 51.4742 148.957 51.6799 148.675 51.9371L148.353 51.4742C148.687 51.1742 149.09 50.9428 149.562 50.7799C150.033 50.6085 150.526 50.5228 151.04 50.5228ZM150.68 56.8099C151.237 56.8099 151.709 56.6814 152.095 56.4242C152.489 56.1671 152.785 55.7942 152.982 55.3056V54.0456H150.693C150.033 54.0456 149.553 54.1656 149.253 54.4056C148.962 54.6456 148.816 54.9756 148.816 55.3956C148.816 55.8328 148.979 56.1799 149.305 56.4371C149.63 56.6856 150.089 56.8099 150.68 56.8099ZM161.186 50.5742V57.2856H160.595V54.9714H158.358C158.204 54.9714 158.092 54.9671 158.024 54.9585L156.365 57.2856H155.658L157.394 54.8814C156.845 54.7614 156.425 54.5256 156.134 54.1742C155.842 53.8228 155.696 53.3685 155.696 52.8114C155.696 52.0742 155.941 51.5171 156.429 51.1399C156.926 50.7628 157.604 50.5742 158.461 50.5742H161.186ZM156.339 52.8371C156.339 53.9342 157.034 54.4828 158.422 54.4828H160.595V51.1399H158.499C157.059 51.1399 156.339 51.7056 156.339 52.8371ZM169.536 54.1742H167.903V57.2856H167.26V50.5742H167.903V53.6214H169.536L172.069 50.5742H172.776L170.05 53.8271L172.982 57.2856H172.21L169.536 54.1742ZM177.004 57.3371C176.369 57.3371 175.795 57.1914 175.281 56.8999C174.775 56.6085 174.377 56.2056 174.085 55.6914C173.794 55.1685 173.648 54.5814 173.648 53.9299C173.648 53.2785 173.794 52.6956 174.085 52.1814C174.377 51.6585 174.775 51.2514 175.281 50.9599C175.795 50.6685 176.369 50.5228 177.004 50.5228C177.638 50.5228 178.208 50.6685 178.714 50.9599C179.228 51.2514 179.631 51.6585 179.922 52.1814C180.214 52.6956 180.359 53.2785 180.359 53.9299C180.359 54.5814 180.214 55.1685 179.922 55.6914C179.631 56.2056 179.228 56.6085 178.714 56.8999C178.208 57.1914 177.638 57.3371 177.004 57.3371ZM177.004 56.7585C177.518 56.7585 177.977 56.6385 178.379 56.3985C178.791 56.1585 179.112 55.8242 179.344 55.3956C179.584 54.9671 179.704 54.4785 179.704 53.9299C179.704 53.3814 179.584 52.8928 179.344 52.4642C179.112 52.0356 178.791 51.7014 178.379 51.4614C177.977 51.2214 177.518 51.1014 177.004 51.1014C176.489 51.1014 176.027 51.2214 175.615 51.4614C175.212 51.7014 174.891 52.0356 174.651 52.4642C174.419 52.8928 174.304 53.3814 174.304 53.9299C174.304 54.4785 174.419 54.9671 174.651 55.3956C174.891 55.8242 175.212 56.1585 175.615 56.3985C176.027 56.6385 176.489 56.7585 177.004 56.7585ZM185.166 57.3371C184.514 57.3371 183.932 57.1914 183.417 56.8999C182.903 56.6085 182.5 56.2056 182.209 55.6914C181.917 55.1685 181.772 54.5814 181.772 53.9299C181.772 53.2699 181.917 52.6828 182.209 52.1685C182.5 51.6456 182.903 51.2428 183.417 50.9599C183.932 50.6685 184.514 50.5228 185.166 50.5228C185.706 50.5228 186.194 50.6299 186.632 50.8442C187.077 51.0499 187.437 51.3542 187.712 51.7571L187.236 52.1042C186.996 51.7699 186.696 51.5214 186.336 51.3585C185.984 51.1871 185.594 51.1014 185.166 51.1014C184.643 51.1014 184.172 51.2214 183.752 51.4614C183.34 51.6928 183.014 52.0228 182.774 52.4514C182.543 52.8799 182.427 53.3728 182.427 53.9299C182.427 54.4871 182.543 54.9799 182.774 55.4085C183.014 55.8371 183.34 56.1714 183.752 56.4114C184.172 56.6428 184.643 56.7585 185.166 56.7585C185.594 56.7585 185.984 56.6771 186.336 56.5142C186.696 56.3428 186.996 56.0899 187.236 55.7556L187.712 56.1028C187.437 56.5056 187.077 56.8142 186.632 57.0285C186.194 57.2342 185.706 57.3371 185.166 57.3371ZM196.913 50.5742V57.2856H196.321V51.6028L193.403 56.4242H193.107L190.201 51.6156V57.2856H189.61V50.5742H190.24L193.274 55.6528L196.321 50.5742H196.913ZM205.414 54.0842H199.641C199.658 54.6071 199.791 55.0742 200.039 55.4856C200.288 55.8885 200.622 56.2014 201.042 56.4242C201.471 56.6471 201.951 56.7585 202.482 56.7585C202.919 56.7585 203.322 56.6814 203.691 56.5271C204.068 56.3642 204.381 56.1285 204.629 55.8199L205.002 56.2442C204.711 56.5956 204.342 56.8656 203.896 57.0542C203.459 57.2428 202.984 57.3371 202.469 57.3371C201.801 57.3371 201.205 57.1914 200.682 56.8999C200.159 56.6085 199.748 56.2056 199.448 55.6914C199.156 55.1771 199.011 54.5899 199.011 53.9299C199.011 53.2785 199.148 52.6956 199.422 52.1814C199.705 51.6585 200.091 51.2514 200.579 50.9599C201.068 50.6685 201.616 50.5228 202.225 50.5228C202.834 50.5228 203.378 50.6685 203.858 50.9599C204.346 51.2428 204.728 51.6414 205.002 52.1556C205.285 52.6699 205.426 53.2528 205.426 53.9042L205.414 54.0842ZM202.225 51.0885C201.754 51.0885 201.329 51.1956 200.952 51.4099C200.575 51.6156 200.271 51.9114 200.039 52.2971C199.816 52.6742 199.688 53.1028 199.654 53.5828H204.796C204.771 53.1028 204.642 52.6742 204.411 52.2971C204.179 51.9199 203.875 51.6242 203.498 51.4099C203.121 51.1956 202.696 51.0885 202.225 51.0885ZM211.7 51.1528H209.077V57.2856H208.434V51.1528H205.812V50.5742H211.7V51.1528ZM213.077 50.5742H213.719V56.2956L218.502 50.5742H219.068V57.2856H218.425V51.5642L213.642 57.2856H213.077V50.5742ZM224.116 54.1742H222.483V57.2856H221.841V50.5742H222.483V53.6214H224.116L226.649 50.5742H227.356L224.631 53.8271L227.562 57.2856H226.791L224.116 54.1742ZM231.247 50.5228C232.078 50.5228 232.717 50.7371 233.162 51.1656C233.608 51.5856 233.831 52.2071 233.831 53.0299V57.2856H233.214V56.0899C233 56.4842 232.687 56.7928 232.275 57.0156C231.864 57.2299 231.371 57.3371 230.797 57.3371C230.051 57.3371 229.46 57.1614 229.022 56.8099C228.594 56.4585 228.38 55.9956 228.38 55.4214C228.38 54.8642 228.577 54.4142 228.971 54.0714C229.374 53.7199 230.012 53.5442 230.887 53.5442H233.188V53.0042C233.188 52.3785 233.017 51.9028 232.674 51.5771C232.34 51.2514 231.847 51.0885 231.195 51.0885C230.75 51.0885 230.321 51.1656 229.91 51.3199C229.507 51.4742 229.164 51.6799 228.881 51.9371L228.56 51.4742C228.894 51.1742 229.297 50.9428 229.768 50.7799C230.24 50.6085 230.732 50.5228 231.247 50.5228ZM230.887 56.8099C231.444 56.8099 231.915 56.6814 232.301 56.4242C232.695 56.1671 232.991 55.7942 233.188 55.3056V54.0456H230.9C230.24 54.0456 229.76 54.1656 229.46 54.4056C229.168 54.6456 229.022 54.9756 229.022 55.3956C229.022 55.8328 229.185 56.1799 229.511 56.4371C229.837 56.6856 230.295 56.8099 230.887 56.8099ZM239.745 50.5742H240.388V56.2956L245.171 50.5742H245.737V57.2856H245.094V51.5642L240.311 57.2856H239.745V50.5742ZM251.316 53.7885C251.813 53.8828 252.194 54.0714 252.46 54.3542C252.734 54.6285 252.872 54.9671 252.872 55.3699C252.872 55.7642 252.739 56.1114 252.473 56.4114C252.216 56.7114 251.864 56.9428 251.419 57.1056C250.973 57.2685 250.489 57.3499 249.966 57.3499C249.486 57.3499 249.014 57.2771 248.552 57.1314C248.097 56.9771 247.699 56.7585 247.356 56.4756L247.613 55.9999C247.913 56.2571 248.269 56.4542 248.68 56.5914C249.1 56.7285 249.524 56.7971 249.953 56.7971C250.587 56.7971 251.123 56.6642 251.56 56.3985C251.997 56.1242 252.216 55.7642 252.216 55.3185C252.216 54.9242 252.032 54.6156 251.663 54.3928C251.303 54.1614 250.814 54.0456 250.197 54.0456H249.117V53.5571H250.172C250.712 53.5571 251.153 53.4499 251.496 53.2356C251.847 53.0214 252.023 52.7342 252.023 52.3742C252.023 51.9542 251.83 51.6328 251.444 51.4099C251.067 51.1785 250.583 51.0628 249.992 51.0628C249.237 51.0628 248.526 51.2556 247.857 51.6414L247.664 51.1271C248.419 50.7071 249.22 50.4971 250.069 50.4971C250.814 50.4971 251.436 50.6599 251.933 50.9856C252.43 51.3028 252.679 51.7356 252.679 52.2842C252.679 52.6356 252.554 52.9442 252.306 53.2099C252.057 53.4756 251.727 53.6685 251.316 53.7885ZM261.463 53.0171H259.303V57.2856H258.647V48.2856H259.303V52.4256H261.476L264.703 48.2856H265.436L261.99 52.6699L265.667 57.2856H264.896L261.463 53.0171ZM270.611 50.5228C271.237 50.5228 271.803 50.6685 272.308 50.9599C272.814 51.2514 273.208 51.6542 273.491 52.1685C273.783 52.6828 273.928 53.2699 273.928 53.9299C273.928 54.5899 273.783 55.1814 273.491 55.7042C273.208 56.2185 272.814 56.6214 272.308 56.9128C271.803 57.1956 271.237 57.3371 270.611 57.3371C270.02 57.3371 269.484 57.1999 269.004 56.9256C268.524 56.6428 268.151 56.2528 267.886 55.7556V59.7799H267.243V50.5742H267.86V52.1556C268.126 51.6414 268.498 51.2428 268.978 50.9599C269.467 50.6685 270.011 50.5228 270.611 50.5228ZM270.573 56.7585C271.087 56.7585 271.55 56.6385 271.961 56.3985C272.373 56.1585 272.694 55.8242 272.926 55.3956C273.166 54.9671 273.286 54.4785 273.286 53.9299C273.286 53.3814 273.166 52.8928 272.926 52.4642C272.694 52.0356 272.373 51.7014 271.961 51.4614C271.55 51.2214 271.087 51.1014 270.573 51.1014C270.058 51.1014 269.596 51.2214 269.184 51.4614C268.781 51.7014 268.46 52.0356 268.22 52.4642C267.988 52.8928 267.873 53.3814 267.873 53.9299C267.873 54.4785 267.988 54.9671 268.22 55.3956C268.46 55.8242 268.781 56.1585 269.184 56.3985C269.596 56.6385 270.058 56.7585 270.573 56.7585ZM278.667 53.0171C279.499 53.0256 280.133 53.2099 280.57 53.5699C281.007 53.9214 281.226 54.4399 281.226 55.1256C281.226 55.8371 280.995 56.3814 280.532 56.7585C280.069 57.1356 279.4 57.3199 278.526 57.3114L276.019 57.2856V50.5742H276.662V52.9914L278.667 53.0171ZM282.46 50.5742H283.103V57.2856H282.46V50.5742ZM278.5 56.7971C279.186 56.8056 279.705 56.6685 280.056 56.3856C280.407 56.1028 280.583 55.6828 280.583 55.1256C280.583 54.5856 280.412 54.1871 280.069 53.9299C279.726 53.6642 279.203 53.5228 278.5 53.5056L276.662 53.4928V56.7714L278.5 56.7971ZM293.165 50.5742V57.2856H292.574V51.6028L289.655 56.4242H289.36L286.454 51.6156V57.2856H285.863V50.5742H286.493L289.527 55.6528L292.574 50.5742H293.165ZM298.169 50.5228C299.001 50.5228 299.639 50.7371 300.085 51.1656C300.531 51.5856 300.753 52.2071 300.753 53.0299V57.2856H300.136V56.0899C299.922 56.4842 299.609 56.7928 299.198 57.0156C298.786 57.2299 298.293 57.3371 297.719 57.3371C296.973 57.3371 296.382 57.1614 295.945 56.8099C295.516 56.4585 295.302 55.9956 295.302 55.4214C295.302 54.8642 295.499 54.4142 295.893 54.0714C296.296 53.7199 296.935 53.5442 297.809 53.5442H300.111V53.0042C300.111 52.3785 299.939 51.9028 299.596 51.5771C299.262 51.2514 298.769 51.0885 298.118 51.0885C297.672 51.0885 297.243 51.1656 296.832 51.3199C296.429 51.4742 296.086 51.6799 295.803 51.9371L295.482 51.4742C295.816 51.1742 296.219 50.9428 296.691 50.7799C297.162 50.6085 297.655 50.5228 298.169 50.5228ZM297.809 56.8099C298.366 56.8099 298.838 56.6814 299.223 56.4242C299.618 56.1671 299.913 55.7942 300.111 55.3056V54.0456H297.822C297.162 54.0456 296.682 54.1656 296.382 54.4056C296.091 54.6456 295.945 54.9756 295.945 55.3956C295.945 55.8328 296.108 56.1799 296.433 56.4371C296.759 56.6856 297.218 56.8099 297.809 56.8099Z" fill="#514C4C"/>
<path d="M60.8625 0.938641C60.7697 0.597639 60.5388 0.310727 60.2253 0.147403C59.6066 -0.179946 58.8397 0.0562001 58.5122 0.674837C58.5113 0.676412 58.5105 0.677988 58.5098 0.679563C58.5098 0.714574 52.0888 13.1713 32.3779 15.342C29.8067 15.6163 27.2935 16.2871 24.9276 17.3306C20.6929 19.1716 17.1955 22.3758 14.9916 26.4333C12.9341 30.2448 12.0819 34.591 12.5479 38.8971C12.8912 42.0361 13.9396 45.057 15.6148 47.7338C12.1138 50.2475 1.00841 58.9372 0.00711227 68.264C-0.0664099 68.96 0.438442 69.5839 1.13445 69.6574C1.83064 69.7309 2.45435 69.2261 2.52787 68.53C3.44515 60.2045 13.8643 52.1311 17.1133 49.7924C21.0134 54.5818 26.8532 57.2846 33.1201 57.7258C37.338 57.998 41.561 57.2787 45.4508 55.6251C49.6734 53.8534 53.4028 51.0829 56.3181 47.5517C63.8314 38.449 67.4094 23.1493 60.8625 0.938641ZM17.8415 46.4804C17.3583 45.7194 16.9324 44.9236 16.5671 44.0997C15.7983 42.3609 15.3024 40.5141 15.0967 38.624C14.6678 34.8315 15.4002 30.998 17.1973 27.6307C19.1397 24.0607 22.2208 21.2434 25.9499 19.6273C28.0819 18.699 30.3446 18.1062 32.658 17.8698C45.6679 16.4693 53.3212 10.6786 57.2704 6.47731C54.9501 14.1164 50.9552 21.142 45.5769 27.0425L44.8066 19.2842C44.7674 18.5854 44.1691 18.0506 43.4703 18.0898C42.7715 18.129 42.2367 18.7273 42.2759 19.4261C42.2778 19.4606 42.2811 19.4951 42.2859 19.5293L43.2732 29.5003C37.3844 35.4731 29.1989 41.4739 17.8415 46.4804ZM54.3575 45.9272V45.9342C51.7086 49.1592 48.3156 51.6921 44.4705 53.3145C40.9346 54.8087 37.097 55.4515 33.2671 55.191C27.9356 54.9209 22.9324 52.5339 19.368 48.56C23.5451 46.7116 27.5839 44.5658 31.4536 42.1391L42.58 44.2397C43.2714 44.3481 43.9198 43.8753 44.0282 43.1838C44.1327 42.5168 43.6959 41.8849 43.0351 41.747L34.4855 40.1295C38.4331 37.4183 42.1078 34.3298 45.4578 30.9077C45.5193 30.8548 45.5755 30.7962 45.6259 30.7326C54.4625 21.5319 58.2227 12.4291 59.7911 6.82742C64.1185 25.285 60.8065 38.1269 54.3575 45.9272Z" fill="#599046"/>
</svg>
