<svg width="26" height="26" viewBox="0 0 26 26" fill="none" xmlns="http://www.w3.org/2000/svg">
<path d="M13.2555 26.0004C13.1694 26.0004 13.0833 26.0004 12.9967 26C10.9587 26.005 9.07559 25.9532 7.24429 25.8417C5.56534 25.7396 4.03278 25.1594 2.81204 24.164C1.63416 23.2035 0.829788 21.9048 0.421356 20.3044C0.0658875 18.9111 0.0470429 17.5434 0.0289917 16.2205C0.0158996 15.2713 0.00241089 14.1466 -0.000366211 13.0028C0.00241089 11.8543 0.0158996 10.7295 0.0289917 9.78037C0.0470429 8.45768 0.0658875 7.08995 0.421356 5.69644C0.829788 4.09604 1.63416 2.79735 2.81204 1.83687C4.03278 0.84148 5.56534 0.261264 7.24449 0.159107C9.07579 0.0478244 10.9593 -0.00414704 13.0016 0.000812069C15.0402 -0.00355195 16.9227 0.0478244 18.754 0.159107C20.4329 0.261264 21.9655 0.84148 23.1862 1.83687C24.3643 2.79735 25.1685 4.09604 25.5769 5.69644C25.9324 7.08976 25.9512 8.45768 25.9693 9.78037C25.9824 10.7295 25.9961 11.8543 25.9986 12.998V13.0028C25.9961 14.1466 25.9824 15.2713 25.9693 16.2205C25.9512 17.5432 25.9326 18.9109 25.5769 20.3044C25.1685 21.9048 24.3643 23.2035 23.1862 24.164C21.9655 25.1594 20.4329 25.7396 18.754 25.8417C17.0002 25.9484 15.1987 26.0004 13.2555 26.0004ZM12.9967 23.9688C15.0015 23.9735 16.8423 23.9229 18.6306 23.8142C19.9001 23.7371 21.0009 23.3251 21.9026 22.5897C22.7361 21.9099 23.3102 20.9721 23.6088 19.8021C23.9047 18.6423 23.9218 17.397 23.9382 16.1927C23.9511 15.2499 23.9646 14.1331 23.9674 13.0004C23.9646 11.8676 23.9511 10.751 23.9382 9.80814C23.9218 8.60387 23.9047 7.35854 23.6088 6.1985C23.3102 5.02855 22.7361 4.09069 21.9026 3.41089C21.0009 2.67575 19.9001 2.26375 18.6306 2.18659C16.8423 2.07769 15.0015 2.0275 13.0014 2.03186C10.9969 2.0271 9.15593 2.07769 7.36768 2.18659C6.09815 2.26375 4.99742 2.67575 4.09566 3.41089C3.26213 4.09069 2.68806 5.02855 2.38953 6.1985C2.09357 7.35854 2.07651 8.60367 2.06004 9.80814C2.04715 10.7518 2.03366 11.8691 2.03088 13.0028C2.03366 14.1315 2.04715 15.2491 2.06004 16.1927C2.07651 17.397 2.09357 18.6423 2.38953 19.8021C2.68806 20.9721 3.26213 21.9099 4.09566 22.5897C4.99742 23.3249 6.09815 23.7369 7.36768 23.814C9.15593 23.9229 10.9973 23.9737 12.9967 23.9688ZM12.9483 19.3481C9.44832 19.3481 6.6006 16.5006 6.6006 13.0004C6.6006 9.50028 9.44832 6.65276 12.9483 6.65276C16.4484 6.65276 19.2959 9.50028 19.2959 13.0004C19.2959 16.5006 16.4484 19.3481 12.9483 19.3481ZM12.9483 8.68401C10.5683 8.68401 8.63185 10.6204 8.63185 13.0004C8.63185 15.3804 10.5683 17.3168 12.9483 17.3168C15.3284 17.3168 17.2647 15.3804 17.2647 13.0004C17.2647 10.6204 15.3284 8.68401 12.9483 8.68401ZM20.0069 4.62151C19.1656 4.62151 18.4834 5.30349 18.4834 6.14495C18.4834 6.98641 19.1656 7.66838 20.0069 7.66838C20.8483 7.66838 21.5303 6.98641 21.5303 6.14495C21.5303 5.30349 20.8483 4.62151 20.0069 4.62151Z" fill="#67BF49"/>
</svg>
