<svg width="32" height="20" viewBox="0 0 32 20" fill="none" xmlns="http://www.w3.org/2000/svg">
<path d="M26.553 11.3705C26.0356 10.7172 26.1836 10.4265 26.553 9.8425C26.5596 9.83584 30.8303 3.9345 31.2703 1.93317L31.273 1.93184C31.4916 1.2025 31.273 0.666504 30.2156 0.666504H26.717C25.8263 0.666504 25.4156 1.1265 25.1956 1.64117C25.1956 1.64117 23.4143 5.90517 20.8943 8.66917C20.081 9.46784 19.705 9.72384 19.261 9.72384C19.0423 9.72384 18.7023 9.46784 18.7023 8.7385V1.93184C18.7023 1.05717 18.453 0.666504 17.7156 0.666504H12.2143C11.6556 0.666504 11.3236 1.0745 11.3236 1.4545C11.3236 2.28384 12.5836 2.4745 12.7143 4.80784V9.8705C12.7143 10.9798 12.513 11.1838 12.0663 11.1838C10.877 11.1838 7.9903 6.9025 6.27963 2.0025C5.9343 1.05184 5.59697 0.667837 4.69963 0.667837H1.19963C0.200967 0.667837 -0.000366211 1.12784 -0.000366211 1.6425C-0.000366211 2.55184 1.18897 7.07317 5.5303 13.0465C8.42363 17.1238 12.4983 19.3332 16.205 19.3332C18.433 19.3332 18.705 18.8425 18.705 17.9985C18.705 14.1025 18.5036 13.7345 19.6196 13.7345C20.137 13.7345 21.0276 13.9905 23.1076 15.9572C25.485 18.2892 25.8756 19.3332 27.2063 19.3332H30.705C31.7023 19.3332 32.2076 18.8425 31.917 17.8745C31.2516 15.8385 26.7556 11.6505 26.553 11.3705Z" fill="#67BF49"/>
</svg>
