<svg width="30" height="25" viewBox="0 0 30 25" fill="none" xmlns="http://www.w3.org/2000/svg">
<path fill-rule="evenodd" clip-rule="evenodd" d="M0.267822 23.6607C0.267822 23.3055 0.408925 22.9648 0.66009 22.7137C0.911255 22.4625 1.25191 22.3214 1.60711 22.3214H28.3928C28.748 22.3214 29.0887 22.4625 29.3398 22.7137C29.591 22.9648 29.7321 23.3055 29.7321 23.6607C29.7321 24.0159 29.591 24.3565 29.3398 24.6077C29.0887 24.8589 28.748 25 28.3928 25H1.60711C1.25191 25 0.911255 24.8589 0.66009 24.6077C0.408925 24.3565 0.267822 24.0159 0.267822 23.6607ZM0.267822 12.9464C0.267822 12.5912 0.408925 12.2505 0.66009 11.9994C0.911255 11.7482 1.25191 11.6071 1.60711 11.6071H28.3928C28.748 11.6071 29.0887 11.7482 29.3398 11.9994C29.591 12.2505 29.7321 12.5912 29.7321 12.9464C29.7321 13.3016 29.591 13.6422 29.3398 13.8934C29.0887 14.1446 28.748 14.2857 28.3928 14.2857H1.60711C1.25191 14.2857 0.911255 14.1446 0.66009 13.8934C0.408925 13.6422 0.267822 13.3016 0.267822 12.9464ZM0.267822 2.23211C0.267822 1.87691 0.408925 1.53626 0.66009 1.28509C0.911255 1.03393 1.25191 0.892822 1.60711 0.892822H28.3928C28.748 0.892822 29.0887 1.03393 29.3398 1.28509C29.591 1.53626 29.7321 1.87691 29.7321 2.23211C29.7321 2.58731 29.591 2.92796 29.3398 3.17913C29.0887 3.43029 28.748 3.57139 28.3928 3.57139H1.60711C1.25191 3.57139 0.911255 3.43029 0.66009 3.17913C0.408925 2.92796 0.267822 2.58731 0.267822 2.23211Z" fill="#1D1D1D"/>
</svg>
