<svg width="45" height="41" viewBox="0 0 45 41" fill="none" xmlns="http://www.w3.org/2000/svg">
<circle cx="35.1013" cy="9.50002" r="9.5" fill="#67BF49"/>
<path d="M37.5413 12.043V13H32.0083V12.252L35.1433 9.22701C35.5247 8.86035 35.7813 8.54502 35.9133 8.28102C36.0453 8.00968 36.1113 7.73835 36.1113 7.46702C36.1113 7.06368 35.9683 6.75202 35.6823 6.53202C35.4037 6.30468 35.0003 6.19102 34.4723 6.19102C33.6217 6.19102 32.9653 6.46968 32.5033 7.02701L31.7553 6.37801C32.056 6.01135 32.4483 5.72535 32.9323 5.52002C33.4237 5.31468 33.97 5.21202 34.5713 5.21202C35.378 5.21202 36.0197 5.40635 36.4963 5.79501C36.973 6.17635 37.2113 6.69701 37.2113 7.35702C37.2113 7.76768 37.1233 8.15635 36.9473 8.52302C36.7713 8.88968 36.4377 9.30768 35.9463 9.77702L33.5923 12.043H37.5413Z" fill="white"/>
<g clip-path="url(#clip0)">
<path d="M10.4902 33.6975C8.70277 33.6975 7.25385 35.1465 7.25385 36.9338C7.25385 38.7212 8.70284 40.1702 10.4902 40.1702C12.2776 40.1702 13.7265 38.7212 13.7265 36.9338C13.7266 35.1465 12.2776 33.6975 10.4902 33.6975ZM10.4902 38.7318C9.49719 38.7318 8.69224 37.9269 8.69224 36.9339C8.69224 35.9409 9.49719 35.1359 10.4902 35.1359C11.4832 35.1359 12.2881 35.9409 12.2881 36.9339C12.2882 37.9269 11.4832 38.7318 10.4902 38.7318Z" fill="#1D1D1D"/>
<path d="M24.1549 33.6975C22.3675 33.6975 20.9186 35.1465 20.9186 36.9338C20.9186 38.7212 22.3676 40.1702 24.1549 40.1702C25.9423 40.1702 27.3913 38.7212 27.3913 36.9338C27.3913 35.1465 25.9423 33.6975 24.1549 33.6975ZM24.1549 38.7318C23.1619 38.7318 22.357 37.9269 22.357 36.9339C22.357 35.9409 23.1619 35.1359 24.1549 35.1359C25.1479 35.1359 25.9529 35.9409 25.9529 36.9339C25.9529 37.9269 25.1479 38.7318 24.1549 38.7318Z" fill="#1D1D1D"/>
<path d="M31.4547 14.8187C31.305 14.6551 31.1001 14.5527 30.8794 14.531L7.46964 14.2073L6.82237 12.2295C6.36638 10.9074 5.12828 10.0148 3.72981 10H1.32051C0.923301 10 0.601318 10.322 0.601318 10.7192C0.601318 11.1164 0.923301 11.4384 1.32051 11.4384H3.72981C4.51178 11.4557 5.20034 11.9578 5.45591 12.697L10.0228 26.4696L9.66322 27.2966C9.26216 28.3309 9.38261 29.4949 9.98686 30.4251C10.5853 31.3388 11.5922 31.9026 12.6839 31.9354H26.6722C27.0694 31.9354 27.3914 31.6135 27.3914 31.2162C27.3914 30.819 27.0694 30.4971 26.6722 30.4971H12.6838C12.0673 30.4816 11.4998 30.1573 11.1735 29.634C10.8508 29.1171 10.7845 28.4803 10.9937 27.9079L11.2814 27.2606L26.4204 25.6784C28.0833 25.4952 29.4513 24.2858 29.8366 22.6578L31.5627 15.4299C31.6405 15.2217 31.5992 14.9877 31.4547 14.8187ZM28.4342 22.3342C28.2007 23.3822 27.3109 24.1552 26.2407 24.2401L11.2814 25.7863L7.93713 15.6457L29.9804 15.9694L28.4342 22.3342Z" fill="#1D1D1D"/>
</g>
<defs>
<clipPath id="clip0">
<rect width="31" height="31" fill="white" transform="translate(0.601318 10)"/>
</clipPath>
</defs>
</svg>
