<svg width="227" height="71" viewBox="0 0 227 71" fill="none" xmlns="http://www.w3.org/2000/svg">
<g clip-path="url(#clip0)">
<path d="M64.0423 47.114C62.725 47.114 61.5343 46.8227 60.4703 46.24C59.419 45.6574 58.5893 44.853 57.9813 43.827C57.386 42.7884 57.0883 41.6294 57.0883 40.35C57.0883 39.0707 57.386 37.918 57.9813 36.892C58.5893 35.8534 59.4253 35.0427 60.4893 34.46C61.5533 33.8774 62.744 33.586 64.0613 33.586C65.0493 33.586 65.9613 33.7507 66.7973 34.08C67.6333 34.4094 68.3427 34.8907 68.9253 35.524L68.0323 36.417C66.9937 35.3657 65.6827 34.84 64.0993 34.84C63.048 34.84 62.0917 35.0807 61.2303 35.562C60.369 36.0434 59.6913 36.702 59.1973 37.538C58.716 38.374 58.4753 39.3114 58.4753 40.35C58.4753 41.3887 58.716 42.326 59.1973 43.162C59.6913 43.998 60.369 44.6567 61.2303 45.138C62.0917 45.6194 63.048 45.86 64.0993 45.86C65.6953 45.86 67.0063 45.328 68.0323 44.264L68.9253 45.157C68.3427 45.7904 67.627 46.278 66.7783 46.62C65.9423 46.9494 65.0303 47.114 64.0423 47.114ZM81.4496 43.447H74.0396L72.4436 47H70.9806L77.0606 33.7H78.4476L84.5276 47H83.0456L81.4496 43.447ZM80.9366 42.307L77.7446 35.163L74.5526 42.307H80.9366ZM97.3297 47L94.2897 42.725C93.9477 42.763 93.5931 42.782 93.2257 42.782H89.6537V47H88.2477V33.7H93.2257C94.9231 33.7 96.2531 34.1054 97.2157 34.916C98.1784 35.7267 98.6598 36.8414 98.6598 38.26C98.6598 39.2987 98.3937 40.179 97.8617 40.901C97.3424 41.6104 96.5951 42.1234 95.6197 42.44L98.8687 47H97.3297ZM93.1877 41.585C94.5051 41.585 95.5121 41.2937 96.2087 40.711C96.9054 40.1284 97.2537 39.3114 97.2537 38.26C97.2537 37.1834 96.9054 36.36 96.2087 35.79C95.5121 35.2074 94.5051 34.916 93.1877 34.916H89.6537V41.585H93.1877ZM112.903 45.784V47H103.498V33.7H112.618V34.916H104.904V39.647H111.782V40.844H104.904V45.784H112.903ZM129.997 47.114C128.679 47.114 127.489 46.8227 126.425 46.24C125.373 45.6574 124.544 44.853 123.936 43.827C123.34 42.7884 123.043 41.6294 123.043 40.35C123.043 39.0707 123.34 37.918 123.936 36.892C124.544 35.8534 125.38 35.0427 126.444 34.46C127.508 33.8774 128.698 33.586 130.016 33.586C131.004 33.586 131.916 33.7507 132.752 34.08C133.588 34.4094 134.297 34.8907 134.88 35.524L133.987 36.417C132.948 35.3657 131.637 34.84 130.054 34.84C129.002 34.84 128.046 35.0807 127.185 35.562C126.323 36.0434 125.646 36.702 125.152 37.538C124.67 38.374 124.43 39.3114 124.43 40.35C124.43 41.3887 124.67 42.326 125.152 43.162C125.646 43.998 126.323 44.6567 127.185 45.138C128.046 45.6194 129.002 45.86 130.054 45.86C131.65 45.86 132.961 45.328 133.987 44.264L134.88 45.157C134.297 45.7904 133.581 46.278 132.733 46.62C131.897 46.9494 130.985 47.114 129.997 47.114ZM148.479 47L145.439 42.725C145.097 42.763 144.742 42.782 144.375 42.782H140.803V47H139.397V33.7H144.375C146.072 33.7 147.402 34.1054 148.365 34.916C149.328 35.7267 149.809 36.8414 149.809 38.26C149.809 39.2987 149.543 40.179 149.011 40.901C148.492 41.6104 147.744 42.1234 146.769 42.44L150.018 47H148.479ZM144.337 41.585C145.654 41.585 146.661 41.2937 147.358 40.711C148.055 40.1284 148.403 39.3114 148.403 38.26C148.403 37.1834 148.055 36.36 147.358 35.79C146.661 35.2074 145.654 34.916 144.337 34.916H140.803V41.585H144.337ZM154.648 33.7H156.054V47H154.648V33.7ZM175.714 33.7V47H174.365V36.36L169.14 45.309H168.475L163.25 36.417V47H161.901V33.7H163.06L168.836 43.561L174.555 33.7H175.714ZM190.972 45.784V47H181.567V33.7H190.687V34.916H182.973V39.647H189.851V40.844H182.973V45.784H190.972ZM204.138 43.447H196.728L195.132 47H193.669L199.749 33.7H201.136L207.216 47H205.734L204.138 43.447ZM203.625 42.307L200.433 35.163L197.241 42.307H203.625Z" fill="#514C4C"/>
<path d="M56.5733 57.302H57.0233V59.444H60.2093V57.302H60.6593V62H60.2093V59.84H57.0233V62H56.5733V57.302ZM64.1596 57.266C64.7416 57.266 65.1886 57.416 65.5006 57.716C65.8126 58.01 65.9686 58.445 65.9686 59.021V62H65.5366V61.163C65.3866 61.439 65.1676 61.655 64.8796 61.811C64.5916 61.961 64.2466 62.036 63.8446 62.036C63.3226 62.036 62.9086 61.913 62.6026 61.667C62.3026 61.421 62.1526 61.097 62.1526 60.695C62.1526 60.305 62.2906 59.99 62.5666 59.75C62.8486 59.504 63.2956 59.381 63.9076 59.381H65.5186V59.003C65.5186 58.565 65.3986 58.232 65.1586 58.004C64.9246 57.776 64.5796 57.662 64.1236 57.662C63.8116 57.662 63.5116 57.716 63.2236 57.824C62.9416 57.932 62.7016 58.076 62.5036 58.256L62.2786 57.932C62.5126 57.722 62.7946 57.56 63.1246 57.446C63.4546 57.326 63.7996 57.266 64.1596 57.266ZM63.9076 61.667C64.2976 61.667 64.6276 61.577 64.8976 61.397C65.1736 61.217 65.3806 60.956 65.5186 60.614V59.732H63.9166C63.4546 59.732 63.1186 59.816 62.9086 59.984C62.7046 60.152 62.6026 60.383 62.6026 60.677C62.6026 60.983 62.7166 61.226 62.9446 61.406C63.1726 61.58 63.4936 61.667 63.9076 61.667ZM70.938 57.707H69.102V62H68.652V57.707H66.816V57.302H70.938V57.707ZM75.7352 57.302L73.3232 62.639C73.1432 63.053 72.9332 63.347 72.6932 63.521C72.4592 63.695 72.1802 63.782 71.8562 63.782C71.6402 63.782 71.4362 63.746 71.2442 63.674C71.0582 63.602 70.8992 63.497 70.7672 63.359L70.9922 63.017C71.2322 63.263 71.5232 63.386 71.8652 63.386C72.0932 63.386 72.2882 63.323 72.4502 63.197C72.6122 63.071 72.7622 62.855 72.9002 62.549L73.1522 61.982L71.0372 57.302H71.5142L73.3952 61.505L75.2762 57.302H75.7352ZM79.1903 57.266C79.6283 57.266 80.0243 57.368 80.3783 57.572C80.7323 57.776 81.0083 58.058 81.2063 58.418C81.4103 58.778 81.5123 59.189 81.5123 59.651C81.5123 60.113 81.4103 60.527 81.2063 60.893C81.0083 61.253 80.7323 61.535 80.3783 61.739C80.0243 61.937 79.6283 62.036 79.1903 62.036C78.7763 62.036 78.4013 61.94 78.0653 61.748C77.7293 61.55 77.4683 61.277 77.2823 60.929V63.746H76.8323V57.302H77.2643V58.409C77.4503 58.049 77.7113 57.77 78.0473 57.572C78.3893 57.368 78.7703 57.266 79.1903 57.266ZM79.1633 61.631C79.5233 61.631 79.8473 61.547 80.1353 61.379C80.4233 61.211 80.6483 60.977 80.8103 60.677C80.9783 60.377 81.0623 60.035 81.0623 59.651C81.0623 59.267 80.9783 58.925 80.8103 58.625C80.6483 58.325 80.4233 58.091 80.1353 57.923C79.8473 57.755 79.5233 57.671 79.1633 57.671C78.8033 57.671 78.4793 57.755 78.1913 57.923C77.9093 58.091 77.6843 58.325 77.5163 58.625C77.3543 58.925 77.2733 59.267 77.2733 59.651C77.2733 60.035 77.3543 60.377 77.5163 60.677C77.6843 60.977 77.9093 61.211 78.1913 61.379C78.4793 61.547 78.8033 61.631 79.1633 61.631ZM84.5151 57.266C85.0971 57.266 85.5441 57.416 85.8561 57.716C86.1681 58.01 86.3241 58.445 86.3241 59.021V62H85.8921V61.163C85.7421 61.439 85.5231 61.655 85.2351 61.811C84.9471 61.961 84.6021 62.036 84.2001 62.036C83.6781 62.036 83.2641 61.913 82.9581 61.667C82.6581 61.421 82.5081 61.097 82.5081 60.695C82.5081 60.305 82.6461 59.99 82.9221 59.75C83.2041 59.504 83.6511 59.381 84.2631 59.381H85.8741V59.003C85.8741 58.565 85.7541 58.232 85.5141 58.004C85.2801 57.776 84.9351 57.662 84.4791 57.662C84.1671 57.662 83.8671 57.716 83.5791 57.824C83.2971 57.932 83.0571 58.076 82.8591 58.256L82.6341 57.932C82.8681 57.722 83.1501 57.56 83.4801 57.446C83.8101 57.326 84.1551 57.266 84.5151 57.266ZM84.2631 61.667C84.6531 61.667 84.9831 61.577 85.2531 61.397C85.5291 61.217 85.7361 60.956 85.8741 60.614V59.732H84.2721C83.8101 59.732 83.4741 59.816 83.2641 59.984C83.0601 60.152 82.9581 60.383 82.9581 60.677C82.9581 60.983 83.0721 61.226 83.3001 61.406C83.5281 61.58 83.8491 61.667 84.2631 61.667ZM91.8244 57.302V62H91.3744V57.707H88.9264L88.8634 58.958C88.8274 59.606 88.7734 60.149 88.7014 60.587C88.6294 61.025 88.5064 61.379 88.3324 61.649C88.1584 61.919 87.9184 62.054 87.6124 62.054C87.5224 62.054 87.3934 62.033 87.2254 61.991L87.2704 61.604C87.3664 61.628 87.4384 61.64 87.4864 61.64C87.7384 61.64 87.9304 61.517 88.0624 61.271C88.1944 61.025 88.2844 60.719 88.3324 60.353C88.3804 59.987 88.4194 59.51 88.4494 58.922L88.5304 57.302H91.8244ZM95.6496 59.012C96.2316 59.018 96.6756 59.147 96.9816 59.399C97.2876 59.645 97.4406 60.008 97.4406 60.488C97.4406 60.986 97.2786 61.367 96.9546 61.631C96.6306 61.895 96.1596 62.024 95.5416 62.018L93.7686 62V57.302H94.2186V58.994L95.6496 59.012ZM95.5326 61.658C96.0066 61.664 96.3666 61.568 96.6126 61.37C96.8586 61.172 96.9816 60.878 96.9816 60.488C96.9816 60.11 96.8616 59.831 96.6216 59.651C96.3816 59.465 96.0186 59.366 95.5326 59.354L94.2186 59.345V61.64L95.5326 61.658ZM98.7432 57.302H99.1932V59.444H102.379V57.302H102.829V62H102.379V59.84H99.1932V62H98.7432V57.302ZM106.33 57.266C106.912 57.266 107.359 57.416 107.671 57.716C107.983 58.01 108.139 58.445 108.139 59.021V62H107.707V61.163C107.557 61.439 107.338 61.655 107.05 61.811C106.762 61.961 106.417 62.036 106.015 62.036C105.493 62.036 105.079 61.913 104.773 61.667C104.473 61.421 104.323 61.097 104.323 60.695C104.323 60.305 104.461 59.99 104.737 59.75C105.019 59.504 105.466 59.381 106.078 59.381H107.689V59.003C107.689 58.565 107.569 58.232 107.329 58.004C107.095 57.776 106.75 57.662 106.294 57.662C105.982 57.662 105.682 57.716 105.394 57.824C105.112 57.932 104.872 58.076 104.674 58.256L104.449 57.932C104.683 57.722 104.965 57.56 105.295 57.446C105.625 57.326 105.97 57.266 106.33 57.266ZM106.078 61.667C106.468 61.667 106.798 61.577 107.068 61.397C107.344 61.217 107.551 60.956 107.689 60.614V59.732H106.087C105.625 59.732 105.289 59.816 105.079 59.984C104.875 60.152 104.773 60.383 104.773 60.677C104.773 60.983 104.887 61.226 105.115 61.406C105.343 61.58 105.664 61.667 106.078 61.667ZM113.432 57.302V62H113.018V60.38H111.452C111.344 60.38 111.266 60.377 111.218 60.371L110.057 62H109.562L110.777 60.317C110.393 60.233 110.099 60.068 109.895 59.822C109.691 59.576 109.589 59.258 109.589 58.868C109.589 58.352 109.76 57.962 110.102 57.698C110.45 57.434 110.924 57.302 111.524 57.302H113.432ZM110.039 58.886C110.039 59.654 110.525 60.038 111.497 60.038H113.018V57.698H111.551C110.543 57.698 110.039 58.094 110.039 58.886ZM119.277 59.822H118.134V62H117.684V57.302H118.134V59.435H119.277L121.05 57.302H121.545L119.637 59.579L121.689 62H121.149L119.277 59.822ZM124.504 62.036C124.06 62.036 123.658 61.934 123.298 61.73C122.944 61.526 122.665 61.244 122.461 60.884C122.257 60.518 122.155 60.107 122.155 59.651C122.155 59.195 122.257 58.787 122.461 58.427C122.665 58.061 122.944 57.776 123.298 57.572C123.658 57.368 124.06 57.266 124.504 57.266C124.948 57.266 125.347 57.368 125.701 57.572C126.061 57.776 126.343 58.061 126.547 58.427C126.751 58.787 126.853 59.195 126.853 59.651C126.853 60.107 126.751 60.518 126.547 60.884C126.343 61.244 126.061 61.526 125.701 61.73C125.347 61.934 124.948 62.036 124.504 62.036ZM124.504 61.631C124.864 61.631 125.185 61.547 125.467 61.379C125.755 61.211 125.98 60.977 126.142 60.677C126.31 60.377 126.394 60.035 126.394 59.651C126.394 59.267 126.31 58.925 126.142 58.625C125.98 58.325 125.755 58.091 125.467 57.923C125.185 57.755 124.864 57.671 124.504 57.671C124.144 57.671 123.82 57.755 123.532 57.923C123.25 58.091 123.025 58.325 122.857 58.625C122.695 58.925 122.614 59.267 122.614 59.651C122.614 60.035 122.695 60.377 122.857 60.677C123.025 60.977 123.25 61.211 123.532 61.379C123.82 61.547 124.144 61.631 124.504 61.631ZM130.217 62.036C129.761 62.036 129.353 61.934 128.993 61.73C128.633 61.526 128.351 61.244 128.147 60.884C127.943 60.518 127.841 60.107 127.841 59.651C127.841 59.189 127.943 58.778 128.147 58.418C128.351 58.052 128.633 57.77 128.993 57.572C129.353 57.368 129.761 57.266 130.217 57.266C130.595 57.266 130.937 57.341 131.243 57.491C131.555 57.635 131.807 57.848 131.999 58.13L131.666 58.373C131.498 58.139 131.288 57.965 131.036 57.851C130.79 57.731 130.517 57.671 130.217 57.671C129.851 57.671 129.521 57.755 129.227 57.923C128.939 58.085 128.711 58.316 128.543 58.616C128.381 58.916 128.3 59.261 128.3 59.651C128.3 60.041 128.381 60.386 128.543 60.686C128.711 60.986 128.939 61.22 129.227 61.388C129.521 61.55 129.851 61.631 130.217 61.631C130.517 61.631 130.79 61.574 131.036 61.46C131.288 61.34 131.498 61.163 131.666 60.929L131.999 61.172C131.807 61.454 131.555 61.67 131.243 61.82C130.937 61.964 130.595 62.036 130.217 62.036ZM138.44 57.302V62H138.026V58.022L135.983 61.397H135.776L133.742 58.031V62H133.328V57.302H133.769L135.893 60.857L138.026 57.302H138.44ZM144.391 59.759H140.35C140.362 60.125 140.455 60.452 140.629 60.74C140.803 61.022 141.037 61.241 141.331 61.397C141.631 61.553 141.967 61.631 142.339 61.631C142.645 61.631 142.927 61.577 143.185 61.469C143.449 61.355 143.668 61.19 143.842 60.974L144.103 61.271C143.899 61.517 143.641 61.706 143.329 61.838C143.023 61.97 142.69 62.036 142.33 62.036C141.862 62.036 141.445 61.934 141.079 61.73C140.713 61.526 140.425 61.244 140.215 60.884C140.011 60.524 139.909 60.113 139.909 59.651C139.909 59.195 140.005 58.787 140.197 58.427C140.395 58.061 140.665 57.776 141.007 57.572C141.349 57.368 141.733 57.266 142.159 57.266C142.585 57.266 142.966 57.368 143.302 57.572C143.644 57.77 143.911 58.049 144.103 58.409C144.301 58.769 144.4 59.177 144.4 59.633L144.391 59.759ZM142.159 57.662C141.829 57.662 141.532 57.737 141.268 57.887C141.004 58.031 140.791 58.238 140.629 58.508C140.473 58.772 140.383 59.072 140.359 59.408H143.959C143.941 59.072 143.851 58.772 143.689 58.508C143.527 58.244 143.314 58.037 143.05 57.887C142.786 57.737 142.489 57.662 142.159 57.662ZM148.791 57.707H146.955V62H146.505V57.707H144.669V57.302H148.791V57.707ZM149.755 57.302H150.205V61.307L153.553 57.302H153.949V62H153.499V57.995L150.151 62H149.755V57.302ZM157.483 59.822H156.34V62H155.89V57.302H156.34V59.435H157.483L159.256 57.302H159.751L157.843 59.579L159.895 62H159.355L157.483 59.822ZM162.474 57.266C163.056 57.266 163.503 57.416 163.815 57.716C164.127 58.01 164.283 58.445 164.283 59.021V62H163.851V61.163C163.701 61.439 163.482 61.655 163.194 61.811C162.906 61.961 162.561 62.036 162.159 62.036C161.637 62.036 161.223 61.913 160.917 61.667C160.617 61.421 160.467 61.097 160.467 60.695C160.467 60.305 160.605 59.99 160.881 59.75C161.163 59.504 161.61 59.381 162.222 59.381H163.833V59.003C163.833 58.565 163.713 58.232 163.473 58.004C163.239 57.776 162.894 57.662 162.438 57.662C162.126 57.662 161.826 57.716 161.538 57.824C161.256 57.932 161.016 58.076 160.818 58.256L160.593 57.932C160.827 57.722 161.109 57.56 161.439 57.446C161.769 57.326 162.114 57.266 162.474 57.266ZM162.222 61.667C162.612 61.667 162.942 61.577 163.212 61.397C163.488 61.217 163.695 60.956 163.833 60.614V59.732H162.231C161.769 59.732 161.433 59.816 161.223 59.984C161.019 60.152 160.917 60.383 160.917 60.677C160.917 60.983 161.031 61.226 161.259 61.406C161.487 61.58 161.808 61.667 162.222 61.667ZM168.423 57.302H168.873V61.307L172.221 57.302H172.617V62H172.167V57.995L168.819 62H168.423V57.302ZM176.522 59.552C176.87 59.618 177.137 59.75 177.323 59.948C177.515 60.14 177.611 60.377 177.611 60.659C177.611 60.935 177.518 61.178 177.332 61.388C177.152 61.598 176.906 61.76 176.594 61.874C176.282 61.988 175.943 62.045 175.577 62.045C175.241 62.045 174.911 61.994 174.587 61.892C174.269 61.784 173.99 61.631 173.75 61.433L173.93 61.1C174.14 61.28 174.389 61.418 174.677 61.514C174.971 61.61 175.268 61.658 175.568 61.658C176.012 61.658 176.387 61.565 176.693 61.379C176.999 61.187 177.152 60.935 177.152 60.623C177.152 60.347 177.023 60.131 176.765 59.975C176.513 59.813 176.171 59.732 175.739 59.732H174.983V59.39H175.721C176.099 59.39 176.408 59.315 176.648 59.165C176.894 59.015 177.017 58.814 177.017 58.562C177.017 58.268 176.882 58.043 176.612 57.887C176.348 57.725 176.009 57.644 175.595 57.644C175.067 57.644 174.569 57.779 174.101 58.049L173.966 57.689C174.494 57.395 175.055 57.248 175.649 57.248C176.171 57.248 176.606 57.362 176.954 57.59C177.302 57.812 177.476 58.115 177.476 58.499C177.476 58.745 177.389 58.961 177.215 59.147C177.041 59.333 176.81 59.468 176.522 59.552ZM183.625 59.012H182.113V62H181.654V55.7H182.113V58.598H183.634L185.893 55.7H186.406L183.994 58.769L186.568 62H186.028L183.625 59.012ZM190.029 57.266C190.467 57.266 190.863 57.368 191.217 57.572C191.571 57.776 191.847 58.058 192.045 58.418C192.249 58.778 192.351 59.189 192.351 59.651C192.351 60.113 192.249 60.527 192.045 60.893C191.847 61.253 191.571 61.535 191.217 61.739C190.863 61.937 190.467 62.036 190.029 62.036C189.615 62.036 189.24 61.94 188.904 61.748C188.568 61.55 188.307 61.277 188.121 60.929V63.746H187.671V57.302H188.103V58.409C188.289 58.049 188.55 57.77 188.886 57.572C189.228 57.368 189.609 57.266 190.029 57.266ZM190.002 61.631C190.362 61.631 190.686 61.547 190.974 61.379C191.262 61.211 191.487 60.977 191.649 60.677C191.817 60.377 191.901 60.035 191.901 59.651C191.901 59.267 191.817 58.925 191.649 58.625C191.487 58.325 191.262 58.091 190.974 57.923C190.686 57.755 190.362 57.671 190.002 57.671C189.642 57.671 189.318 57.755 189.03 57.923C188.748 58.091 188.523 58.325 188.355 58.625C188.193 58.925 188.112 59.267 188.112 59.651C188.112 60.035 188.193 60.377 188.355 60.677C188.523 60.977 188.748 61.211 189.03 61.379C189.318 61.547 189.642 61.631 190.002 61.631ZM195.669 59.012C196.251 59.018 196.695 59.147 197.001 59.399C197.307 59.645 197.46 60.008 197.46 60.488C197.46 60.986 197.298 61.367 196.974 61.631C196.65 61.895 196.182 62.024 195.57 62.018L193.815 62V57.302H194.265V58.994L195.669 59.012ZM198.324 57.302H198.774V62H198.324V57.302ZM195.552 61.658C196.032 61.664 196.395 61.568 196.641 61.37C196.887 61.172 197.01 60.878 197.01 60.488C197.01 60.11 196.89 59.831 196.65 59.651C196.41 59.465 196.044 59.366 195.552 59.354L194.265 59.345V61.64L195.552 61.658ZM205.817 57.302V62H205.403V58.022L203.36 61.397H203.153L201.119 58.031V62H200.705V57.302H201.146L203.27 60.857L205.403 57.302H205.817ZM209.32 57.266C209.902 57.266 210.349 57.416 210.661 57.716C210.973 58.01 211.129 58.445 211.129 59.021V62H210.697V61.163C210.547 61.439 210.328 61.655 210.04 61.811C209.752 61.961 209.407 62.036 209.005 62.036C208.483 62.036 208.069 61.913 207.763 61.667C207.463 61.421 207.313 61.097 207.313 60.695C207.313 60.305 207.451 59.99 207.727 59.75C208.009 59.504 208.456 59.381 209.068 59.381H210.679V59.003C210.679 58.565 210.559 58.232 210.319 58.004C210.085 57.776 209.74 57.662 209.284 57.662C208.972 57.662 208.672 57.716 208.384 57.824C208.102 57.932 207.862 58.076 207.664 58.256L207.439 57.932C207.673 57.722 207.955 57.56 208.285 57.446C208.615 57.326 208.96 57.266 209.32 57.266ZM209.068 61.667C209.458 61.667 209.788 61.577 210.058 61.397C210.334 61.217 210.541 60.956 210.679 60.614V59.732H209.077C208.615 59.732 208.279 59.816 208.069 59.984C207.865 60.152 207.763 60.383 207.763 60.677C207.763 60.983 207.877 61.226 208.105 61.406C208.333 61.58 208.654 61.667 209.068 61.667Z" fill="#514C4C"/>
<path d="M43.205 22.6571C43.1401 22.4184 42.9785 22.2175 42.759 22.1032C42.326 21.8741 41.7891 22.0394 41.5599 22.4724C41.5593 22.4735 41.5586 22.4746 41.5582 22.4757C41.5582 22.5002 37.0635 31.22 23.2658 32.7394C21.466 32.9314 19.7067 33.401 18.0507 34.1314C15.0864 35.4202 12.6382 37.6631 11.0955 40.5034C9.65516 43.1714 9.05865 46.2137 9.38484 49.228C9.62514 51.4253 10.359 53.54 11.5317 55.4137C9.08095 57.1733 1.30721 63.256 0.606297 69.7848C0.554831 70.272 0.908228 70.7087 1.39543 70.7602C1.88276 70.8117 2.31936 70.4583 2.37083 69.9711C3.01292 64.1432 10.3063 58.4918 12.5806 56.8547C15.3107 60.2073 19.3986 62.0993 23.7854 62.4081C26.7379 62.5986 29.694 62.0951 32.4169 60.9376C35.3727 59.6974 37.9833 57.758 40.024 55.2862C45.2833 48.9143 47.7879 38.2046 43.205 22.6571ZM13.0904 54.5363C12.7522 54.0036 12.454 53.4466 12.1983 52.8698C11.6601 51.6526 11.313 50.3599 11.169 49.0368C10.8688 46.3821 11.3815 43.6986 12.6394 41.3415C13.9991 38.8425 16.1559 36.8704 18.7663 35.7391C20.2587 35.0893 21.8426 34.6744 23.4619 34.5089C32.5688 33.5286 37.9262 29.475 40.6906 26.5341C39.0664 31.8815 36.2699 36.7994 32.5051 40.9298L31.966 35.499C31.9385 35.0098 31.5197 34.6354 31.0305 34.6629C30.5413 34.6903 30.167 35.1092 30.1944 35.5983C30.1958 35.6225 30.1981 35.6466 30.2014 35.6705L30.8925 42.6502C26.7704 46.8312 21.0406 51.0317 13.0904 54.5363ZM38.6516 54.1491V54.154C36.7973 56.4115 34.4222 58.1845 31.7307 59.3201C29.2556 60.3661 26.5692 60.8161 23.8883 60.6337C20.1562 60.4447 16.654 58.7738 14.1589 55.992C17.0829 54.6982 19.91 53.1961 22.6188 51.4974L30.4073 52.9678C30.8913 53.0437 31.3452 52.7127 31.421 52.2287C31.4942 51.7618 31.1885 51.3195 30.7259 51.2229L24.7412 50.0907C27.5045 48.1928 30.0768 46.0309 32.4218 43.6354C32.4648 43.5984 32.5041 43.5574 32.5394 43.5129C38.7251 37.0723 41.3572 30.7004 42.4551 26.7792C45.4842 39.6995 43.1658 48.6888 38.6516 54.1491Z" fill="#599046"/>
</g>
<g clip-path="url(#clip1)">
<path d="M183.713 22.3938C183.713 22.3938 187.714 14.2379 197.286 12.4673C197.286 12.4673 201.805 8.1801 211.988 13.5103C211.988 13.5103 214.75 16.3173 215.034 17.6305C215.034 17.6305 219.61 19.422 218.468 24.9004C218.468 24.9004 219.111 26.4989 218.12 29.9173L217.308 37.487L213.196 39.4878L213.274 38.1103C213.274 38.1103 210.939 32.2543 211.073 30.6102C211.073 30.6102 210.291 29.6803 209.914 31.4843L210.265 34.4848L184.693 27.0522L183.713 22.3938Z" fill="#E14B4B"/>
<path d="M213.783 24.5477C213.724 21.0136 213.298 17.486 212.493 14.0377C213.073 14.6684 214.026 15.7539 214.588 16.6663C214.548 19.31 214.274 21.9473 213.783 24.5477Z" fill="#D03F3E"/>
<path d="M205.485 15.1031C205.785 15.1486 206.017 15.3227 206.201 15.5617C205.967 15.4041 205.722 15.2528 205.485 15.1031Z" fill="#D03F3E"/>
<path d="M211.065 30.5987C210.982 30.5137 210.28 29.7911 209.923 31.4649C209.662 30.9091 209.471 30.3002 209.228 29.7384C208.553 28.1587 207.37 26.85 206.215 25.5712C204.004 23.1276 201.722 20.6352 198.817 19.0764C200.358 19.3143 201.727 20.1689 203.031 21.0168C205.61 22.6928 208.241 24.5547 209.601 27.3066C209.923 25.7174 209.375 24.0962 208.832 22.5694C208.12 20.564 207.408 18.5572 206.697 16.5518C206.576 16.209 206.42 15.8333 206.2 15.5614C207.308 16.2697 208.354 17.0724 209.072 18.1598C210.026 19.6056 210.282 21.382 210.475 23.1042C210.754 25.5897 210.951 28.098 211.065 30.5987Z" fill="#D03F3E"/>
<path d="M177.319 30.4065C177.536 29.3631 177.277 30.5588 177.359 30.1197C177.076 31.2852 178.448 24.8252 179.589 24.3514C180.454 23.7817 181.562 21.7391 181.96 22.6935C182.533 22.388 182.749 23.06 183.174 22.3986C183.478 22.3124 183.822 21.7076 183.9 22.4441C184.155 22.3307 184.262 23.0067 184.633 22.8836C184.861 23.4481 185.35 23.2335 185.866 23.7691C185.768 24.2388 186.207 23.2513 186.44 23.821C186.689 24.3219 187.212 24.0751 187.73 23.8936C188.291 23.5077 188.816 23.3333 189.087 23.8645C189.296 24.2455 189.664 24.4069 190.186 24.0215C190.69 23.7171 191.122 23.9527 191.455 24.4825C191.758 25.1641 192.14 25.2903 192.505 24.9669C192.703 25.4459 192.997 24.9267 192.942 25.1906C192.938 25.2095 192.966 25.6164 193.247 25.2416C193.465 25.1753 193.676 25.5582 194.067 25.3928C194.307 25.9582 194.833 25.4606 195.257 25.6422C195.794 25.2854 196.352 25.0231 196.671 25.9864C197.246 25.7167 197.734 25.9454 198.163 26.4231C198.702 26.3676 199.175 26.5905 199.589 26.9507C200.078 26.9411 200.355 27.7996 200.803 27.5638C201.264 27.2702 201.66 27.0096 201.66 28.2622C201.712 28.0132 201.706 28.6305 201.972 28.4093C202.156 28.5859 202.513 28.3879 202.811 28.8144C203.188 28.8633 203.584 29.152 204.029 29.4227C204.615 29.0083 204.958 29.9723 205.475 30.1817C205.955 30.5685 206.371 31.3457 207.002 31.0352C207.656 30.6195 208.025 31.5183 208.46 31.9296C208.76 32.9906 209.379 32.3471 209.703 32.8114C210.065 33.0945 210.436 33.0335 210.579 33.6255C210.577 33.6376 210.649 34.3828 210.68 34.4245C210.728 34.5474 210.633 35.3864 210.72 35.3423C210.852 36.2186 210.268 39.904 209.464 41.2363C209.465 41.2322 209.457 40.9721 209.239 41.4096C209.1 41.4681 208.972 41.1591 208.593 41.7424C208.275 42.0362 208.005 41.7723 207.577 41.95C207.071 42.5038 206.687 42.1344 206.239 41.7487C205.792 41.3604 205.264 41.0201 204.629 40.8553C204.763 40.2151 204.633 40.6498 204.526 40.7942C204.383 41.1146 204.411 40.4354 204.222 40.6207C204.249 39.7733 203.883 40.6445 203.727 40.3479C203.564 40.0809 203.274 40.2635 203.047 39.9916C202.635 40.6048 202.529 39.6026 202.193 39.5649C201.963 39.0142 201.683 38.5575 201.171 39.0807C200.771 39.0666 200.531 38.1537 199.991 38.5551C199.646 38.0242 198.999 38.8114 198.661 38.001C198.134 38.0959 197.747 37.4025 197.189 37.4329C196.701 37.1193 196.084 37.3198 195.583 36.8651C195.003 36.7866 194.391 36.7732 193.853 36.3109C193.26 36.1125 192.722 35.5596 192.005 35.7858C191.419 35.3868 190.721 35.4419 190.05 35.3033C189.428 34.9265 188.71 34.935 187.993 34.876C186.838 34.3146 185.719 34.3228 184.762 34.2207C183.802 34.1307 183.036 33.7734 182.347 33.6211C181.69 33.3104 181.126 33.1196 180.628 33.0906C180.025 33.565 179.809 32.6598 179.488 32.6382C179.196 32.484 179.069 31.9139 178.809 32.2721C178.636 32.2175 178.618 31.7012 178.471 31.9996C178.409 31.8879 178.332 32.0483 178.355 31.83C178.275 32.1029 178.194 32.487 178.343 31.771C178.166 32.621 178.064 31.9163 177.878 31.4327C177.589 31.4317 177.182 31.8128 177.319 30.4065Z" fill="#FCFDFF"/>
<path d="M220.041 39.3361C220.841 41.4729 219.343 44.1671 217.206 44.9672C215.069 45.7672 212.689 44.682 211.889 42.5452C211.089 40.4084 212.174 38.0278 214.311 37.2277C216.446 36.4274 219.241 37.198 220.041 39.3361Z" fill="#FCFDFF"/>
<path d="M218.974 43.7071C218.49 44.2698 217.876 44.7068 217.202 44.9616C215.069 45.7739 212.684 44.6835 211.888 42.5405C211.09 40.411 212.166 38.023 214.309 37.227C214.415 37.1926 214.508 37.1554 214.611 37.1346C213.705 38.2307 213.397 39.7764 213.933 41.2015C214.691 43.252 216.922 44.3384 218.974 43.7071Z" fill="#EAF5FF"/>
<path d="M214.78 37.2549C214.807 37.2041 214.811 37.147 214.804 37.0905C214.797 37.0918 214.79 37.0947 214.783 37.096L214.78 37.2549Z" fill="#CBD6E0"/>
</g>
<defs>
<clipPath id="clip0">
<rect width="213" height="49" fill="white" transform="translate(0.601318 22)"/>
</clipPath>
<clipPath id="clip1">
<rect width="44.2268" height="44.2268" fill="white" transform="translate(183.628) rotate(11.7767)"/>
</clipPath>
</defs>
</svg>
