<svg width="80" height="16" viewBox="0 0 80 16" fill="none" xmlns="http://www.w3.org/2000/svg">
<path d="M78.6013 9C79.1536 9 79.6013 8.55228 79.6013 8C79.6013 7.44772 79.1536 7 78.6013 7L78.6013 9ZM0.894211 7.29289C0.503685 7.68341 0.503685 8.31658 0.894211 8.7071L7.25817 15.0711C7.6487 15.4616 8.28186 15.4616 8.67239 15.0711C9.06291 14.6805 9.06291 14.0474 8.67239 13.6568L3.01553 7.99999L8.67239 2.34314C9.06291 1.95262 9.06291 1.31945 8.67239 0.928926C8.28186 0.538402 7.6487 0.538402 7.25817 0.928926L0.894211 7.29289ZM78.6013 7L1.60132 6.99999L1.60132 8.99999L78.6013 9L78.6013 7Z" fill="#67BF49"/>
</svg>
