<svg width="80" height="16" viewBox="0 0 80 16" fill="none" xmlns="http://www.w3.org/2000/svg">
<path d="M1.60132 7C1.04903 7 0.601318 7.44772 0.601318 8C0.601318 8.55228 1.04903 9 1.60132 9V7ZM79.3084 8.70711C79.699 8.31658 79.699 7.68342 79.3084 7.29289L72.9445 0.928932C72.5539 0.538408 71.9208 0.538408 71.5303 0.928932C71.1397 1.31946 71.1397 1.95262 71.5303 2.34315L77.1871 8L71.5303 13.6569C71.1397 14.0474 71.1397 14.6805 71.5303 15.0711C71.9208 15.4616 72.5539 15.4616 72.9445 15.0711L79.3084 8.70711ZM1.60132 9H78.6013V7H1.60132V9Z" fill="#67BF49"/>
</svg>
