<svg width="28" height="28" viewBox="0 0 28 28" fill="none" xmlns="http://www.w3.org/2000/svg">
<path d="M1.01929 3.9039C1.01929 3.13885 1.3232 2.40514 1.86417 1.86417C2.40514 1.3232 3.13885 1.01929 3.9039 1.01929H8.63467C8.93726 1.01952 9.23211 1.11491 9.47749 1.29196C9.72288 1.469 9.90636 1.71874 10.002 2.00583L12.1626 8.48611C12.272 8.81545 12.2591 9.17321 12.1261 9.49377C11.9931 9.81433 11.749 10.0762 11.4385 10.2313L8.18323 11.8611C9.77888 15.3927 12.6075 18.2212 16.139 19.8169L17.7688 16.5616C17.9239 16.2511 18.1858 16.007 18.5063 15.874C18.8269 15.741 19.1847 15.7281 19.514 15.8376L25.9943 17.9981C26.2816 18.0938 26.5315 18.2775 26.7086 18.5232C26.8856 18.7689 26.9809 19.064 26.9808 19.3669V24.0962C26.9808 24.8613 26.6769 25.595 26.1359 26.1359C25.595 26.6769 24.8613 26.9808 24.0962 26.9808H22.6539C10.7058 26.9808 1.01929 17.2943 1.01929 5.34621V3.9039Z" stroke="#1D1D1D" stroke-width="1.5" stroke-linecap="round" stroke-linejoin="round"/>
</svg>
