<svg width="34" height="20" viewBox="0 0 34 20" fill="none" xmlns="http://www.w3.org/2000/svg">
<path d="M28.2129 11.4565C27.6632 10.7623 27.8205 10.4535 28.2129 9.833C28.22 9.82591 32.7576 3.55575 33.2251 1.42933L33.2279 1.42791C33.4603 0.652996 33.2279 0.0834961 32.1045 0.0834961H28.3872C27.4408 0.0834961 27.0045 0.572246 26.7707 1.11908C26.7707 1.11908 24.8781 5.64958 22.2006 8.58633C21.3364 9.43491 20.9369 9.70691 20.4652 9.70691C20.2328 9.70691 19.8716 9.43491 19.8716 8.66V1.42791C19.8716 0.498579 19.6067 0.0834961 18.8232 0.0834961H12.9781C12.3845 0.0834961 12.0317 0.516996 12.0317 0.920746C12.0317 1.80191 13.3705 2.0045 13.5093 4.48366V9.86275C13.5093 11.0414 13.2954 11.2582 12.8208 11.2582C11.5572 11.2582 8.49008 6.70925 6.6725 1.503C6.30558 0.492913 5.94717 0.0849127 4.99375 0.0849127H1.275C0.213917 0.0849127 0 0.573663 0 1.1205C0 2.08666 1.26367 6.89058 5.87633 13.2372C8.9505 17.5694 13.2798 19.9168 17.2182 19.9168C19.5854 19.9168 19.8744 19.3955 19.8744 18.4987C19.8744 14.3592 19.6605 13.9682 20.8463 13.9682C21.3959 13.9682 22.3422 14.2402 24.5522 16.3298C27.0782 18.8076 27.4932 19.9168 28.9071 19.9168H32.6244C33.6841 19.9168 34.221 19.3955 33.9122 18.367C33.2052 16.2037 28.4283 11.754 28.2129 11.4565Z" fill="#1D1D1D"/>
</svg>
