<svg width="26" height="26" viewBox="0 0 26 26" fill="none" xmlns="http://www.w3.org/2000/svg">
<path d="M13.2559 26.0004C13.1698 26.0004 13.0837 26.0004 12.997 26C10.959 26.005 9.07596 25.9532 7.24466 25.8417C5.5657 25.7396 4.03314 25.1594 2.81241 24.164C1.63452 23.2035 0.830154 21.9048 0.421723 20.3044C0.0662537 18.9111 0.0474091 17.5434 0.0293579 16.2205C0.0162658 15.2713 0.0027771 14.1466 0 13.0028C0.0027771 11.8543 0.0162658 10.7295 0.0293579 9.78037C0.0474091 8.45768 0.0662537 7.08995 0.421723 5.69644C0.830154 4.09604 1.63452 2.79735 2.81241 1.83687C4.03314 0.84148 5.5657 0.261264 7.24486 0.159107C9.07616 0.0478244 10.9596 -0.00414704 13.002 0.000812069C15.0406 -0.00355195 16.9231 0.0478244 18.7544 0.159107C20.4333 0.261264 21.9659 0.84148 23.1866 1.83687C24.3647 2.79735 25.1689 4.09604 25.5773 5.69644C25.9328 7.08976 25.9516 8.45768 25.9697 9.78037C25.9827 10.7295 25.9964 11.8543 25.999 12.998V13.0028C25.9964 14.1466 25.9827 15.2713 25.9697 16.2205C25.9516 17.5432 25.933 18.9109 25.5773 20.3044C25.1689 21.9048 24.3647 23.2035 23.1866 24.164C21.9659 25.1594 20.4333 25.7396 18.7544 25.8417C17.0006 25.9484 15.1991 26.0004 13.2559 26.0004ZM12.997 23.9688C15.0019 23.9735 16.8427 23.9229 18.631 23.8142C19.9005 23.7371 21.0012 23.3251 21.903 22.5897C22.7365 21.9099 23.3106 20.9721 23.6091 19.8021C23.9051 18.6423 23.9221 17.397 23.9386 16.1927C23.9515 15.2499 23.965 14.1331 23.9678 13.0004C23.965 11.8676 23.9515 10.751 23.9386 9.80814C23.9221 8.60387 23.9051 7.35854 23.6091 6.1985C23.3106 5.02855 22.7365 4.09069 21.903 3.41089C21.0012 2.67575 19.9005 2.26375 18.631 2.18659C16.8427 2.07769 15.0019 2.0275 13.0018 2.03186C10.9973 2.0271 9.1563 2.07769 7.36804 2.18659C6.09851 2.26375 4.99779 2.67575 4.09602 3.41089C3.2625 4.09069 2.68843 5.02855 2.38989 6.1985C2.09393 7.35854 2.07687 8.60367 2.06041 9.80814C2.04752 10.7518 2.03403 11.8691 2.03125 13.0028C2.03403 14.1315 2.04752 15.2491 2.06041 16.1927C2.07687 17.397 2.09393 18.6423 2.38989 19.8021C2.68843 20.9721 3.2625 21.9099 4.09602 22.5897C4.99779 23.3249 6.09851 23.7369 7.36804 23.814C9.1563 23.9229 10.9977 23.9737 12.997 23.9688ZM12.9486 19.3481C9.44869 19.3481 6.60097 16.5006 6.60097 13.0004C6.60097 9.50028 9.44869 6.65276 12.9486 6.65276C16.4488 6.65276 19.2963 9.50028 19.2963 13.0004C19.2963 16.5006 16.4488 19.3481 12.9486 19.3481ZM12.9486 8.68401C10.5687 8.68401 8.63222 10.6204 8.63222 13.0004C8.63222 15.3804 10.5687 17.3168 12.9486 17.3168C15.3288 17.3168 17.265 15.3804 17.265 13.0004C17.265 10.6204 15.3288 8.68401 12.9486 8.68401ZM20.0072 4.62151C19.166 4.62151 18.4838 5.30349 18.4838 6.14495C18.4838 6.98641 19.166 7.66838 20.0072 7.66838C20.8487 7.66838 21.5307 6.98641 21.5307 6.14495C21.5307 5.30349 20.8487 4.62151 20.0072 4.62151Z" fill="#67BF49"/>
</svg>
